<svg width="358" height="104" viewBox="14.7 83.0 357.7 103.8" xmlns="http://www.w3.org/2000/svg" role="img" aria-label="GridMix">
  <defs>
    <linearGradient id="gridmixBrandGradient" x1="14.7" y1="0" x2="372.3" y2="0" gradientUnits="userSpaceOnUse">
      <stop offset="0%" stop-color="#0B6E37" />
      <stop offset="100%" stop-color="#7DC242" />
    </linearGradient>
  </defs>
  <path data-glyph="icon" fill-rule="evenodd" fill="url(#gridmixBrandGradient)" d="M 47.33,186.92 L 45.75,186.17 L 45.42,183.83 L 51.75,166.17 L 41.17,160.92 L 36.00,156.92 L 31.25,152.00 L 27.75,147.00 L 25.58,142.67 L 23.58,137.50 L 22.42,131.67 L 18.67,130.25 L 15.58,126.83 L 14.75,124.67 L 14.75,120.67 L 15.92,118.00 L 18.00,115.75 L 19.50,114.75 L 23.58,113.50 L 26.58,105.50 L 29.58,100.50 L 34.83,94.58 L 40.83,89.75 L 48.33,85.75 L 54.00,83.92 L 60.00,82.92 L 67.67,82.92 L 70.83,83.42 L 77.17,84.92 L 83.83,87.92 L 89.33,91.58 L 96.00,98.08 L 100.00,97.75 L 102.50,98.42 L 104.50,99.58 L 106.92,102.33 L 107.92,104.67 L 108.08,108.00 L 106.92,111.00 L 104.25,113.83 L 105.08,116.00 L 106.08,122.33 L 106.08,128.17 L 105.08,134.67 L 104.25,136.00 L 103.08,140.67 L 99.92,146.83 L 96.58,151.67 L 91.67,156.92 L 86.33,161.08 L 78.50,165.08 L 72.17,166.92 L 63.67,167.75 L 49.08,185.67 Z M 68.58,163.17 L 71.83,162.92 L 80.17,160.25 L 87.67,155.58 L 91.75,151.67 L 96.58,145.50 L 99.58,140.00 L 101.58,134.00 L 101.58,131.50 L 102.42,128.67 L 102.42,122.00 L 101.25,115.50 L 96.50,115.25 L 93.83,113.92 L 90.92,110.67 L 90.08,108.50 L 89.92,105.50 L 90.92,102.67 L 92.58,100.50 L 92.42,99.67 L 87.83,95.08 L 84.50,92.58 L 75.83,88.58 L 67.33,86.92 L 60.67,86.92 L 55.33,87.75 L 49.33,89.58 L 43.50,92.42 L 39.50,95.42 L 34.25,101.00 L 30.42,106.67 L 27.08,114.17 L 29.50,115.75 L 31.92,118.67 L 32.92,121.33 L 32.92,124.17 L 31.25,127.83 L 28.67,130.42 L 26.42,131.33 L 26.25,133.00 L 28.42,139.83 L 30.25,143.50 L 34.42,149.67 L 39.00,154.58 L 45.50,159.08 L 52.83,162.08 L 53.58,161.67 L 58.42,149.17 L 58.50,147.08 L 39.33,147.08 L 38.25,145.83 L 38.75,143.00 L 43.58,132.67 L 52.92,109.33 L 57.58,99.17 L 58.33,98.42 L 59.67,98.25 L 84.17,98.75 L 85.92,99.83 L 86.08,101.17 L 78.42,115.83 L 70.92,132.00 L 69.92,133.17 L 70.33,133.58 L 88.00,133.58 L 89.92,135.50 L 68.08,162.33 L 67.75,163.00 Z M 100.42,111.67 L 101.33,111.58 L 103.42,109.67 L 104.25,108.17 L 104.25,105.50 L 101.83,102.25 L 99.33,101.58 L 97.83,101.92 L 96.33,102.25 L 94.75,103.83 L 93.75,106.17 L 93.92,107.83 L 95.08,110.17 L 96.50,111.42 Z M 53.75,173.50 L 83.92,137.67 L 83.67,137.25 L 66.17,137.25 L 65.08,136.00 L 65.08,134.83 L 68.08,128.33 L 80.58,104.17 L 80.67,102.75 L 78.50,102.58 L 60.25,102.33 L 52.92,120.50 L 43.25,142.00 L 43.50,143.08 L 61.83,143.08 L 63.25,144.17 L 63.25,146.83 L 61.42,150.83 Z M 25.75,127.50 L 27.58,126.17 L 28.42,124.83 L 28.75,122.00 L 28.25,120.17 L 26.50,118.25 L 24.50,117.42 L 22.33,117.92 L 20.83,118.42 L 19.42,120.00 L 18.75,122.00 L 19.08,124.67 L 21.83,127.58 Z" />
  <path data-glyph="G" fill-rule="evenodd" fill="url(#gridmixBrandGradient)" d="M 153.50,152.92 L 139.83,152.58 L 134.00,150.42 L 129.42,146.50 L 126.92,142.50 L 125.92,139.50 L 125.75,133.67 L 125.92,131.33 L 128.08,126.33 L 131.17,122.58 L 134.17,120.42 L 139.83,118.25 L 154.17,118.25 L 155.25,119.17 L 155.25,123.33 L 154.50,124.75 L 140.33,125.08 L 136.83,127.08 L 135.42,128.50 L 133.92,131.33 L 133.42,133.83 L 133.58,138.67 L 134.75,141.50 L 136.33,143.58 L 139.50,145.58 L 143.67,146.42 L 148.17,146.58 L 148.75,146.00 L 149.17,141.92 L 154.67,141.75 L 155.25,142.83 L 155.25,151.83 L 154.50,152.75 Z M 154.50,138.42 L 142.33,138.42 L 141.42,137.50 L 141.42,133.33 L 142.25,132.67 L 154.67,132.58 L 155.25,133.17 L 155.25,137.67 Z" />
  <path data-glyph="R" fill-rule="evenodd" fill="url(#gridmixBrandGradient)" d="M 189.50,152.75 L 184.50,152.75 L 183.00,152.25 L 175.33,141.25 L 169.17,141.25 L 168.75,141.67 L 168.92,151.67 L 168.33,152.42 L 163.17,152.75 L 161.58,151.67 L 161.75,135.33 L 163.33,134.58 L 180.17,134.42 L 181.92,133.00 L 182.75,131.50 L 182.92,128.50 L 181.50,126.08 L 179.00,125.08 L 162.83,124.92 L 161.75,124.00 L 161.58,119.17 L 163.33,118.08 L 181.50,118.42 L 185.00,119.75 L 188.42,122.67 L 190.25,126.83 L 190.25,131.67 L 188.58,135.67 L 186.00,138.25 L 183.50,139.42 L 183.08,140.33 L 190.75,151.00 L 190.75,152.17 Z" />
  <path data-glyph="I1" fill-rule="evenodd" fill="url(#gridmixBrandGradient)" d="M 215.33,152.75 L 210.00,152.75 L 208.92,151.67 L 208.92,119.17 L 210.00,118.25 L 215.00,118.08 L 215.92,118.50 L 216.25,119.50 L 216.25,151.33 Z" />
  <path data-glyph="D" fill-rule="evenodd" fill="url(#gridmixBrandGradient)" d="M 237.33,152.75 L 236.00,152.58 L 235.25,151.83 L 235.25,147.50 L 236.17,146.25 L 244.33,146.25 L 248.33,145.58 L 250.83,144.08 L 253.08,141.67 L 254.25,139.00 L 254.75,135.67 L 254.25,131.67 L 253.42,129.67 L 250.17,126.25 L 247.83,125.08 L 235.75,124.33 L 235.25,123.33 L 235.58,118.50 L 236.33,118.08 L 240.50,118.08 L 248.50,118.42 L 253.67,120.42 L 256.33,122.42 L 259.75,126.33 L 261.75,131.00 L 261.92,139.33 L 258.92,145.83 L 254.00,150.25 L 248.67,152.42 Z" />
  <path data-glyph="M" fill-rule="evenodd" fill="url(#gridmixBrandGradient)" d="M 269.00,152.75 L 267.58,152.00 L 267.75,118.67 L 268.17,118.25 L 274.67,118.42 L 284.67,133.42 L 286.58,131.17 L 293.92,119.17 L 295.00,118.25 L 299.17,118.25 L 301.00,118.42 L 301.58,119.67 L 294.08,131.67 L 284.83,144.92 L 283.75,144.50 L 274.58,130.83 L 274.42,151.83 L 273.67,152.58 Z M 300.83,152.58 L 295.83,152.58 L 294.92,151.67 L 294.92,136.00 L 298.75,130.50 L 300.17,127.92 L 300.83,127.75 L 301.75,128.50 L 301.92,151.00 Z" />
  <path data-glyph="I2" fill-rule="evenodd" fill="url(#gridmixBrandGradient)" d="M 323.00,152.75 L 318.33,152.75 L 316.92,151.67 L 316.92,119.17 L 318.17,118.25 L 323.33,118.25 L 324.25,119.33 L 324.25,151.50 L 323.92,152.33 Z" />
  <path data-glyph="X" fill-rule="evenodd" fill="url(#gridmixBrandGradient)" d="M 348.50,152.58 L 341.83,152.58 L 341.08,152.00 L 341.08,151.17 L 352.42,135.67 L 352.42,135.00 L 341.58,119.83 L 341.58,118.83 L 342.33,118.25 L 349.00,118.58 L 355.50,127.75 L 356.67,129.42 L 357.33,129.08 L 365.33,118.25 L 371.00,118.25 L 372.08,119.00 L 372.08,119.67 L 361.42,134.33 L 349.92,151.50 Z M 371.17,152.58 L 365.67,152.58 L 363.92,151.00 L 359.25,144.33 L 359.58,142.83 L 361.58,140.17 L 362.50,139.25 L 363.92,139.33 L 372.42,151.17 L 372.42,151.83 Z" />
</svg>
